<svg clip-rule="evenodd" fill-rule="evenodd" height="512" image-rendering="optimizeQuality" shape-rendering="geometricPrecision" text-rendering="geometricPrecision" viewBox="0 0 850 850" width="512" xmlns="http://www.w3.org/2000/svg"><g id="Layer_x0020_1"><circle cx="425" cy="425" fill="#ea4c89" r="425"/><g fill="#fff"><path d="m449 597c-4 0-8-4-8-8v-107c0-30 25-55 56-55h20c5 0 8 3 8 8 0 4-3 7-8 7h-20c-22 0-41 19-41 41v107c0 3-3 7-7 7z"/><path d="m421 625c-20 0-37-16-37-36s17-36 37-36c19 0 35 16 35 36s-16 36-35 36z"/><path d="m412 468h-80c-4 0-8-3-8-7s4-8 8-8h80c4 0 8 4 8 8s-4 7-8 7z"/><path d="m412 523h-80c-4 0-8-3-8-7 0-5 4-8 8-8h80c4 0 8 3 8 8 0 4-4 7-8 7z"/><path d="m372 578h-40c-4 0-8-3-8-7s4-8 8-8h40c4 0 7 4 7 8s-3 7-7 7z"/><path d="m632 472c-4 0-8-3-8-7 0-30-6-59-19-86l11-9c15 29 22 61 22 95 1 4-2 7-6 7zm-414 0c-4 0-7-3-7-7 0-33 7-66 22-95l12 9c-13 27-19 56-19 85-1 5-4 8-8 8z"/><path d="m301 629h-83c-4 0-7-4-7-8v-156c0-4 3-7 7-7h83c4 0 7 3 7 7v157c0 4-3 7-7 7z"/><path d="m632 629h-83c-4 0-7-4-7-8v-156c0-4 3-7 7-7h83c4 0 7 3 7 7v157c0 4-3 7-7 7z"/><path d="m673 594h-20v-102h20c4 0 8 3 8 7v88c-1 4-4 7-8 7z"/><path d="m197 594h-20c-4 0-8-3-8-7v-88c0-4 4-7 8-7h20z"/><path d="m270 381c-1 0-3-1-4-2l-45-38c-3-2-4-7-1-10l19-23c46-55 114-87 186-87s140 32 186 87l19 23c1 1 2 3 2 5s-2 4-3 5l-45 38c-2 1-3 2-5 2-3 0-4-2-5-3l-19-22c-33-39-80-61-130-61s-98 22-130 61l-19 22c-2 2-4 3-6 3z"/></g></g></svg>